<svg width="16" height="16" viewBox="0 0 16 16" fill="none" xmlns="http://www.w3.org/2000/svg">
<g clip-path="url(#clip0_559_2407)">
<path d="M3.33337 10.6654V8.66536C3.33337 8.48855 3.40361 8.31898 3.52864 8.19396C3.65366 8.06894 3.82323 7.9987 4.00004 7.9987H12C12.1769 7.9987 12.3464 8.06894 12.4714 8.19396C12.5965 8.31898 12.6667 8.48855 12.6667 8.66536V10.6654M8.00004 7.9987V5.33203M11.3334 10.6654H14C14.3682 10.6654 14.6667 10.9638 14.6667 11.332V13.9987C14.6667 14.3669 14.3682 14.6654 14 14.6654H11.3334C10.9652 14.6654 10.6667 14.3669 10.6667 13.9987V11.332C10.6667 10.9638 10.9652 10.6654 11.3334 10.6654ZM2.00004 10.6654H4.66671C5.0349 10.6654 5.33337 10.9638 5.33337 11.332V13.9987C5.33337 14.3669 5.0349 14.6654 4.66671 14.6654H2.00004C1.63185 14.6654 1.33337 14.3669 1.33337 13.9987V11.332C1.33337 10.9638 1.63185 10.6654 2.00004 10.6654ZM6.66671 1.33203H9.33337C9.70156 1.33203 10 1.63051 10 1.9987V4.66536C10 5.03355 9.70156 5.33203 9.33337 5.33203H6.66671C6.29852 5.33203 6.00004 5.03355 6.00004 4.66536V1.9987C6.00004 1.63051 6.29852 1.33203 6.66671 1.33203Z" stroke="black" stroke-width="1.33333" stroke-linecap="round" stroke-linejoin="round"/>
</g>
<defs>
<clipPath id="clip0_559_2407">
<rect width="16" height="16" fill="white"/>
</clipPath>
</defs>
</svg>